<svg xmlns="http://www.w3.org/2000/svg" width="1146.667" height="386.667" viewBox="0 0 860 290"><path d="M116.5 12C91.6 17.1 71 28.6 53.2 47.5 35.6 66 24.4 88.2 19 114.9c-3.1 15.5-3 41.3.4 57.1 3.7 17.6 11.3 36.3 19.9 49 19 28.1 49.8 48.3 79.4 52.2 9.5 1.2 12.6.7 15.9-2.9 4.1-4.5 2.8-12.4-2.6-15.3-1.1-.6-6.1-1.8-11.2-2.6-20.2-3.5-37.1-12.7-52.5-28.5-8.6-9-10.9-11.8-16.4-21-22.5-37.6-21-89.8 3.8-126.2C69.8 56 92.1 40.2 116 33.9c12.1-3.3 34.7-3.3 47 0 24 6.2 47.3 23.1 62 45 24.7 36.8 24.9 90 .3 128.4-4.9 7.6-16.9 20.6-24.6 26.6-6.4 4.9-23 13.8-23.4 12.5-.2-.5-1.4-2.7-2.6-4.9-1.8-3.2-2.8-4-5.2-4-2.7 0-3.3.9-10.8 15.3-9.7 18.7-9.7 19.3.1 22.1 25.6 7.3 28.3 7.8 30.5 5.6 2.1-2.1 2.1-2.9-.7-9l-2.2-5 9-5.3c20.4-12 33.7-24 44.4-40 13.4-20.1 20.5-40.5 23.3-67.2 2.4-23-3.2-52.2-14-73.9-18.9-37.5-49.8-61.3-89-68.6-11.4-2.1-32-1.9-43.6.5"/><path d="M128.7 67.6c-18.2 5.9-30.9 16.3-40.1 32.9-1.9 3.3-4.1 8.4-5.1 11.2l-1.7 5.3h-7.3c-6.2 0-7.5.3-7.9 1.7-.9 3-3.6 15.4-3.6 16.4 0 .5 3.4.9 7.5.9H78v14H64.3l-1.8 8.2c-1 4.6-2 8.9-2.2 9.5-.4 1 2.1 1.3 10.4 1.3h11l1.3 4.2c2.8 9.6 11 22.8 18.1 29.3 19.5 18 51.9 22.6 76.4 10.9 8.8-4.1 9.8-5.2 8.6-9-.5-1.6-1.9-6.5-3.1-10.9s-2.3-8.6-2.6-9.3c-.2-.8-2.2 0-6.1 2.7-3.2 2.1-9.1 4.9-13.1 6.1-12.9 3.9-28.2 1.4-38.5-6.4-3.8-2.9-12.7-14.5-12.7-16.7 0-.5 9-.9 20.8-.9h20.8l1.6-6.8c.9-3.7 1.9-7.9 2.2-9.5l.6-2.7h-51v-14h54.6l1.8-7.8c1-4.2 2-8.5 2.2-9.5.5-1.6-1.2-1.7-26.5-1.7-14.9 0-27.1-.2-27.1-.5s.9-2.4 2.1-4.7c2.8-5.4 11.2-14.3 16.6-17.5 12.5-7.3 29.7-7 44.4.8l6.6 3.5 2.7-9.6c4-14.3 4-14.9-1.4-17.6-13.6-6.9-37.4-8.6-52.3-3.8m325.9 52.6c-5.6 1.5-11.9 8.2-14.1 14.9-2.7 7.8-2.5 19.9.4 26.4 4.3 9.8 10.3 13.1 22.2 12.3 5.9-.5 7.6-1 10.7-3.5 13.5-10.9 13-38.8-.7-47.9-4.5-2.9-12.5-3.9-18.5-2.2m12.8 10.7c5.4 4.6 7.3 17.8 3.7 25.7-5.4 11.9-17.7 10.9-21.1-1.7-1.5-5.5-.6-15.1 1.8-19.8 3.3-6.4 10.7-8.4 15.6-4.2m220.8-10.6c-6.9 2.2-11.1 9.6-9.6 17.2 1.2 6.5 5.1 9.8 16.2 13.6 6.9 2.4 9.2 4.4 9.2 8s-3.3 5.9-8.6 5.9c-4.1 0-8.4-2.7-9.6-6.1-.5-1.2-1-1.1-3.4.3-4.5 2.6-5.2 4.3-2.8 7.5 3.9 5.1 7 6.7 14.3 7.1 8.3.5 12.8-.8 16.7-4.9 2.6-2.8 2.9-3.7 2.9-9.9 0-6.4-.2-7.2-3-10-1.7-1.7-6.4-4.4-10.5-6.1-4.1-1.6-8.3-3.7-9.2-4.6-2.5-2.3-2.3-6.8.4-8.7 3.7-2.6 6.8-2 11 2.5l3.9 4 3.2-1.8c4.4-2.6 4.4-4.5.3-9.1-5.2-5.7-13.2-7.6-21.4-4.9m-382.3-.1c-.1.2-.3 12.1-.5 26.5l-.5 26.3h33.2l-.3-4.3-.3-4.2-11.2-.3-11.2-.3.2-6.2.2-6.2 9.8-.3 9.7-.3v-8.8l-9.7-.3-9.8-.3.1-6v-6l11.2-.3 11.2-.3V120h-16c-8.8 0-16 .1-16.1.2m40.1 19.6c0 19.2.1 20 2.6 24.9 3.2 6.6 8.2 9.3 17.2 9.3 16.5 0 20.2-6.8 20.2-36.7V120h-10v18c0 23.7-1.3 27-10.8 27-2.8 0-4.5-.7-6.3-2.6-2.3-2.5-2.4-3-2.7-22.5l-.3-19.9H346zm50 6.6V173h10v-18h3.9c3.9 0 3.9 0 8.5 9l4.7 9h11.1l-5.5-10.4-5.6-10.5 2.5-1.6c6.4-4.1 8.6-15.3 4.3-22.1-3.8-6.3-7.8-7.8-21.6-8.2l-12.3-.4zm23.7-14c2.9 3.4 2.9 6.8.1 10.1-1.8 2-3.5 2.7-8 3.2l-5.8.6v-17.5l5.7.4c4.6.4 6.1 1 8 3.2m89.3 14V173h10v-18h7.9l4.8 9 4.8 9h5.3c2.8 0 5.2-.3 5.2-.8 0-.4-2.5-5-5.4-10.2l-5.4-9.5 2.9-2.3c4.2-3.4 5.9-7.3 5.9-13.5 0-6.4-2.6-11-8-14.1-2.8-1.6-5.7-2.1-15.7-2.4l-12.3-.4zm22.9-14.8c3.8 3.1 4.1 7.2.9 10.9-1.8 2-3.5 2.7-8 3.2l-5.8.6V129h4.9c3.9 0 5.6.6 8 2.6m28.8 14.2c-4.8 14.2-8.7 26.2-8.7 26.6s2.3.6 5.2.4l5.1-.3 1.5-5.3 1.5-5.3 9.1.3 9.1.3 1.4 5.2 1.4 5.3h10.6l-1.3-4.3c-.7-2.3-4.6-14.2-8.7-26.5l-7.4-22.2h-10.2zm16.7-3.1c1.4 5.1 2.6 9.7 2.6 10.2 0 .7-2.5 1.1-6 1.1-3.3 0-6-.2-6-.4 0-.5 4.9-17.6 5.6-19.5.7-2.1 1-1.4 3.8 8.6m16.6-18.2v4.5h14v44h11v-44h14v-9h-39zm45 22V173h32.1l-.3-4.3-.3-4.2-10.7-.3-10.8-.3V151h19v-9h-19v-13h22v-9h-32zm114.1-24.3c-1.4 3.6-13.1 38.7-15.1 45l-1.8 5.8h10.4l1.5-5.3 1.6-5.2 8.9-.3 9-.3 1.8 5.6 1.7 5.5h5c2.7 0 4.9-.3 4.9-.8 0-.4-3.8-12.2-8.4-26.2l-8.4-25.5-5.1-.3c-4.6-.3-5.2-.1-6 2m11.3 29.3c.6 2.5.5 2.5-5.5 2.5h-6.1l.5-2.8c.2-1.5 1.5-6.4 2.8-10.9l2.4-8.3 2.6 8.5c1.5 4.7 3 9.6 3.3 11m23.6-5.1V173h10v-18h6.8c11.8-.1 18.3-4.8 19.8-14.5 1.1-7.9-2.4-14.8-9.6-18.6-1.5-.8-7.4-1.5-14.7-1.7l-12.3-.4zm21.9-15.9c1.6.8 3.1 2.2 3.5 3 1 2.8.7 8-.7 9.9s-7.4 3.3-11.9 2.8l-2.8-.3V129h4.5c2.6 0 5.9.7 7.4 1.5m22.1 16V173h10v-53h-10z"/></svg>